HIERARCHY
ROOT Hips
{
	OFFSET 2.433734 86.173073 3.643662
	CHANNELS 6 Xposition Yposition Zposition Zrotation Yrotation Xrotation 
	JOINT Spine
	{
		OFFSET -0.000000 8.814246 -2.080107
		CHANNELS 3 Zrotation Yrotation Xrotation
		JOINT Spine1
		{
			OFFSET 0.000000 8.844141 0.000000
			CHANNELS 3 Zrotation Yrotation Xrotation
			JOINT Spine2
			{
				OFFSET 0.000000 11.682268 -0.000000
				CHANNELS 3 Zrotation Yrotation Xrotation
				JOINT Spine3
				{
					OFFSET -0.000000 11.746700 -0.000000
					CHANNELS 3 Zrotation Yrotation Xrotation
					JOINT Neck
					{
						OFFSET -0.000000 17.658264 0.000000
						CHANNELS 3 Zrotation Yrotation Xrotation
						JOINT Neck1
						{
							OFFSET -0.000000 5.101515 -0.000000
							CHANNELS 3 Zrotation Yrotation Xrotation
							JOINT Head
							{
								OFFSET 0.000000 5.101515 -0.000000
								CHANNELS 3 Zrotation Yrotation Xrotation
								JOINT HeadEnd
								{
									OFFSET -0.000000 11.655085 -0.000000
									CHANNELS 3 Zrotation Yrotation Xrotation
									End Site
									{
										OFFSET 0.000000 0.000000 0.000000
									}
								}
							}
						}
					}
					JOINT RightShoulder
					{
						OFFSET -2.625389 11.175210 -0.000000
						CHANNELS 3 Zrotation Yrotation Xrotation
						JOINT RightArm
						{
							OFFSET -0.000000 10.434715 0.000000
							CHANNELS 3 Zrotation Yrotation Xrotation
							JOINT RightForeArm
							{
								OFFSET 0.000000 29.628420 -0.000000
								CHANNELS 3 Zrotation Yrotation Xrotation
								JOINT RightHand
								{
									OFFSET 0.000000 22.857611 0.000000
									CHANNELS 3 Zrotation Yrotation Xrotation
									JOINT RightHandThumb1
									{
										OFFSET -2.867323 3.959563 2.944291
										CHANNELS 3 Zrotation Yrotation Xrotation
										JOINT RightHandThumb2
										{
											OFFSET 0.000000 3.350399 0.000000
											CHANNELS 3 Zrotation Yrotation Xrotation
											JOINT RightHandThumb3
											{
												OFFSET -0.000000 3.756509 -0.000000
												CHANNELS 3 Zrotation Yrotation Xrotation
												JOINT RightHandThumb4
												{
													OFFSET -0.000000 3.147345 -0.000000
													CHANNELS 3 Zrotation Yrotation Xrotation
													End Site
													{
														OFFSET 0.000000 0.000000 0.000000
													}
												}
											}
										}
									}
									JOINT RightHandIndex1
									{
										OFFSET -0.086752 10.030893 2.345280
										CHANNELS 3 Zrotation Yrotation Xrotation
										JOINT RightHandIndex2
										{
											OFFSET -0.000000 4.061090 0.000000
											CHANNELS 3 Zrotation Yrotation Xrotation
											JOINT RightHandIndex3
											{
												OFFSET 0.000000 3.248873 0.000000
												CHANNELS 3 Zrotation Yrotation Xrotation
												JOINT RightHandIndex4
												{
													OFFSET 0.000000 2.639709 0.000000
													CHANNELS 3 Zrotation Yrotation Xrotation
													End Site
													{
														OFFSET 0.000000 0.000000 0.000000
													}
												}
											}
										}
									}
									JOINT RightHandMiddle1
									{
										OFFSET 0.104102 9.502952 0.006768
										CHANNELS 3 Zrotation Yrotation Xrotation
										JOINT RightHandMiddle2
										{
											OFFSET -0.000000 4.568727 -0.000000
											CHANNELS 3 Zrotation Yrotation Xrotation
											JOINT RightHandMiddle3
											{
												OFFSET -0.000000 3.654981 0.000000
												CHANNELS 3 Zrotation Yrotation Xrotation
												JOINT RightHandMiddle4
												{
													OFFSET 0.000000 2.741236 0.000000
													CHANNELS 3 Zrotation Yrotation Xrotation
													End Site
													{
														OFFSET 0.000000 0.000000 0.000000
													}
												}
											}
										}
									}
									JOINT RightHandRing1
									{
										OFFSET 0.086752 8.921708 -2.267442
										CHANNELS 3 Zrotation Yrotation Xrotation
										JOINT RightHandRing2
										{
											OFFSET -0.000000 4.061090 -0.000000
											CHANNELS 3 Zrotation Yrotation Xrotation
											JOINT RightHandRing3
											{
												OFFSET 0.000000 3.654981 0.000000
												CHANNELS 3 Zrotation Yrotation Xrotation
												JOINT RightHandRing4
												{
													OFFSET -0.000000 2.741236 -0.000000
													CHANNELS 3 Zrotation Yrotation Xrotation
													End Site
													{
														OFFSET 0.000000 0.000000 0.000000
													}
												}
											}
										}
									}
									JOINT RightHandPinky1
									{
										OFFSET -0.173504 7.976997 -4.467199
										CHANNELS 3 Zrotation Yrotation Xrotation
										JOINT RightHandPinky2
										{
											OFFSET 0.000000 3.350399 0.000000
											CHANNELS 3 Zrotation Yrotation Xrotation
											JOINT RightHandPinky3
											{
												OFFSET 0.000000 2.842763 0.000000
												CHANNELS 3 Zrotation Yrotation Xrotation
												JOINT RightHandPinky4
												{
													OFFSET 0.000000 2.639709 0.000000
													CHANNELS 3 Zrotation Yrotation Xrotation
													End Site
													{
														OFFSET 0.000000 0.000000 0.000000
													}
												}
											}
										}
									}
									JOINT RightForeArmEnd
									{
										OFFSET 0.000000 0.000000 0.000000
										CHANNELS 3 Zrotation Yrotation Xrotation
										End Site
										{
											OFFSET 0.000000 0.000000 0.000000
										}
									}
								}
								JOINT RightArmEnd
								{
									OFFSET 0.000000 0.000000 0.000000
									CHANNELS 3 Zrotation Yrotation Xrotation
									End Site
									{
										OFFSET 0.000000 0.000000 0.000000
									}
								}
							}
						}
					}
					JOINT LeftShoulder
					{
						OFFSET 2.625389 11.175210 -0.000000
						CHANNELS 3 Zrotation Yrotation Xrotation
						JOINT LeftArm
						{
							OFFSET 0.000000 10.813635 0.000000
							CHANNELS 3 Zrotation Yrotation Xrotation
							JOINT LeftForeArm
							{
								OFFSET 0.000000 28.724781 0.000000
								CHANNELS 3 Zrotation Yrotation Xrotation
								JOINT LeftHand
								{
									OFFSET 0.644384 25.716167 -0.328871
									CHANNELS 3 Zrotation Yrotation Xrotation
									JOINT LeftHandThumb1
									{
										OFFSET 2.867323 3.959563 2.944291
										CHANNELS 3 Zrotation Yrotation Xrotation
										JOINT LeftHandThumb2
										{
											OFFSET 0.000000 3.350399 0.000000
											CHANNELS 3 Zrotation Yrotation Xrotation
											JOINT LeftHandThumb3
											{
												OFFSET -0.000000 3.756509 -0.000000
												CHANNELS 3 Zrotation Yrotation Xrotation
												JOINT LeftHandThumb4
												{
													OFFSET -0.000000 3.100000 0.000000
													CHANNELS 3 Zrotation Yrotation Xrotation
													End Site
													{
														OFFSET 0.000000 0.000000 0.000000
													}
												}
											}
										}
									}
									JOINT LeftHandIndex1
									{
										OFFSET 0.086752 10.030893 2.345280
										CHANNELS 3 Zrotation Yrotation Xrotation
										JOINT LeftHandIndex2
										{
											OFFSET -0.000000 4.061090 0.000000
											CHANNELS 3 Zrotation Yrotation Xrotation
											JOINT LeftHandIndex3
											{
												OFFSET 0.000000 3.248873 0.000000
												CHANNELS 3 Zrotation Yrotation Xrotation
												JOINT LeftHandIndex4
												{
													OFFSET -0.000000 2.639709 0.000000
													CHANNELS 3 Zrotation Yrotation Xrotation
													End Site
													{
														OFFSET 0.000000 0.000000 0.000000
													}
												}
											}
										}
									}
									JOINT LeftHandMiddle1
									{
										OFFSET -0.104102 9.502952 0.006768
										CHANNELS 3 Zrotation Yrotation Xrotation
										JOINT LeftHandMiddle2
										{
											OFFSET -0.000000 4.568727 0.000000
											CHANNELS 3 Zrotation Yrotation Xrotation
											JOINT LeftHandMiddle3
											{
												OFFSET 0.000000 3.654981 -0.000000
												CHANNELS 3 Zrotation Yrotation Xrotation
												JOINT LeftHandMiddle4
												{
													OFFSET -0.000000 2.741236 0.000000
													CHANNELS 3 Zrotation Yrotation Xrotation
													End Site
													{
														OFFSET 0.000000 0.000000 0.000000
													}
												}
											}
										}
									}
									JOINT LeftHandRing1
									{
										OFFSET -0.086752 8.921708 -2.267442
										CHANNELS 3 Zrotation Yrotation Xrotation
										JOINT LeftHandRing2
										{
											OFFSET -0.000000 4.061090 0.000000
											CHANNELS 3 Zrotation Yrotation Xrotation
											JOINT LeftHandRing3
											{
												OFFSET 0.000000 3.654981 0.000000
												CHANNELS 3 Zrotation Yrotation Xrotation
												JOINT LeftHandRing4
												{
													OFFSET 0.000000 2.741236 -0.000000
													CHANNELS 3 Zrotation Yrotation Xrotation
													End Site
													{
														OFFSET 0.000000 0.000000 0.000000
													}
												}
											}
										}
									}
									JOINT LeftHandPinky1
									{
										OFFSET 0.173504 7.976997 -4.467199
										CHANNELS 3 Zrotation Yrotation Xrotation
										JOINT LeftHandPinky2
										{
											OFFSET 0.000000 3.350399 -0.000000
											CHANNELS 3 Zrotation Yrotation Xrotation
											JOINT LeftHandPinky3
											{
												OFFSET -0.000000 2.842763 0.000000
												CHANNELS 3 Zrotation Yrotation Xrotation
												JOINT LeftHandPinky4
												{
													OFFSET -0.000000 2.639709 0.000000
													CHANNELS 3 Zrotation Yrotation Xrotation
													End Site
													{
														OFFSET 0.000000 0.000000 0.000000
													}
												}
											}
										}
									}
									JOINT LeftForeArmEnd
									{
										OFFSET 0.000000 0.000000 0.000000
										CHANNELS 3 Zrotation Yrotation Xrotation
										End Site
										{
											OFFSET 0.000000 0.000000 0.000000
										}
									}
								}
								JOINT LeftArmEnd
								{
									OFFSET 0.000000 0.000000 0.000000
									CHANNELS 3 Zrotation Yrotation Xrotation
									End Site
									{
										OFFSET 0.000000 0.000000 0.000000
									}
								}
							}
						}
					}
				}
			}
		}
	}
	JOINT RightUpLeg
	{
		OFFSET -11.289943 0.000000 0.000000
		CHANNELS 3 Zrotation Yrotation Xrotation
		JOINT RightLeg
		{
			OFFSET -0.000000 -38.200325 0.000000
			CHANNELS 3 Zrotation Yrotation Xrotation
			JOINT RightFoot
			{
				OFFSET -0.000000 -39.900856 -0.000000
				CHANNELS 3 Zrotation Yrotation Xrotation
				JOINT RightToeBase
				{
					OFFSET -0.000000 -0.000000 15.261641
					CHANNELS 3 Zrotation Yrotation Xrotation
					JOINT RightToeBaseEnd
					{
						OFFSET -0.000000 0.000000 7.370709
						CHANNELS 3 Zrotation Yrotation Xrotation
						End Site
						{
							OFFSET 0.000000 0.000000 0.000000
						}
					}
				}
				JOINT RightLegEnd
				{
					OFFSET 0.000000 0.000000 0.000000
					CHANNELS 3 Zrotation Yrotation Xrotation
					End Site
					{
						OFFSET 0.000000 0.000000 0.000000
					}
				}
			}
			JOINT RightUpLegEnd
			{
				OFFSET 0.000000 0.000000 0.000000
				CHANNELS 3 Zrotation Yrotation Xrotation
				End Site
				{
					OFFSET 0.000000 0.000000 0.000000
				}
			}
		}
	}
	JOINT LeftUpLeg
	{
		OFFSET 11.315661 0.000000 -0.000000
		CHANNELS 3 Zrotation Yrotation Xrotation
		JOINT LeftLeg
		{
			OFFSET -0.000000 -38.200325 -0.000000
			CHANNELS 3 Zrotation Yrotation Xrotation
			JOINT LeftFoot
			{
				OFFSET 0.000000 -39.900856 -0.000000
				CHANNELS 3 Zrotation Yrotation Xrotation
				JOINT LeftToeBase
				{
					OFFSET 0.000000 -0.000000 15.261641
					CHANNELS 3 Zrotation Yrotation Xrotation
					JOINT LeftToeBaseEnd
					{
						OFFSET 0.000000 -0.000000 7.539996
						CHANNELS 3 Zrotation Yrotation Xrotation
						End Site
						{
							OFFSET 0.000000 0.000000 0.000000
						}
					}
				}
				JOINT LeftLegEnd
				{
					OFFSET 0.000000 0.000000 0.000000
					CHANNELS 3 Zrotation Yrotation Xrotation
					End Site
					{
						OFFSET 0.000000 0.000000 0.000000
					}
				}
			}
			JOINT LeftUpLegEnd
			{
				OFFSET 0.000000 0.000000 0.000000
				CHANNELS 3 Zrotation Yrotation Xrotation
				End Site
				{
					OFFSET 0.000000 0.000000 0.000000
				}
			}
		}
	}
}
MOTION
Frames: 4
Frame Time: 0.016667
8.120989 85.695808 10.534047 4.115740 12.884930 -12.613760 -2.579986 0.588535 7.647928 5.626957 -1.142545 -1.865083 -8.084574 4.911125 19.491755 0.286859 0.188025 -0.219065 5.534359 3.286047 11.819041 -2.700381 2.043834 -7.309620 0.601627 3.702432 -25.466650 0.000000 0.000000 0.000000 98.977676 -1.146258 5.780479 60.003414 -36.205582 5.803991 1.303061 17.459541 31.199121 4.189809 17.925312 -10.480677 10.393125 -1.801468 40.019005 0.000016 0.000051 -25.337189 0.000028 0.000068 -17.593048 0.000008 0.000008 -0.000045 14.357234 0.684129 -9.451472 10.546518 -0.082253 -0.005152 10.530095 -0.017797 -0.045852 -0.000003 0.000013 -0.000022 15.319366 0.249890 -11.404531 11.046940 -0.055559 -0.036023 11.002935 -0.001362 -0.022143 -0.000009 0.000070 -0.000000 18.252670 -0.345827 -12.441927 12.887961 0.088159 0.107128 12.712720 -0.006159 0.084148 -0.000009 -0.000664 0.000022 20.106253 -0.919502 -14.808419 13.417259 0.173280 0.488957 13.394441 -0.059674 0.388673 -0.000205 -0.000013 -0.000021 0.000000 0.000000 0.000000 0.000000 0.000000 0.000000 -95.476212 0.697262 4.402307 -53.443302 34.040485 1.455748 -2.078457 -9.116289 50.726414 -1.873490 -12.981876 -14.671762 -9.740832 1.712469 40.299816 -0.000002 0.000034 -23.807411 -0.000039 -0.000036 -16.642345 0.000283 0.000004 0.001139 -17.389347 0.691158 -14.503935 -11.538964 -0.003532 0.437114 -11.544382 0.055109 0.424154 0.000016 -0.000405 -0.000002 -17.978565 0.296383 -15.575134 -12.126351 -0.025994 0.176914 -11.960601 0.020574 0.141117 -0.002504 -0.000081 -0.000058 -19.505316 -0.294134 -14.484775 -13.392569 0.063239 -0.255599 -13.387357 -0.029163 -0.202745 0.000112 0.000011 -0.000001 -19.533146 -0.835596 -13.964691 -13.706257 0.117102 -0.730403 -13.588691 -0.082910 -0.669002 -0.001166 -0.000006 -0.000041 0.000000 0.000000 0.000000 0.000000 0.000000 0.000000 -17.199709 -3.219863 14.463386 -0.466034 -1.235144 20.943262 8.823760 -12.919734 11.374443 -1.077840 -1.274872 -27.359045 0.000000 0.000000 0.000000 0.000000 0.000000 0.000000 0.000000 0.000000 0.000000 -4.517832 4.287903 13.799368 0.087090 0.413760 12.675708 7.021601 4.422654 13.518404 -0.393825 0.149762 -27.295652 0.000000 0.000000 0.000000 0.000000 0.000000 0.000000 0.000000 0.000000 0.000000 
8.106343 85.696297 10.520453 4.120109 12.892379 -12.596168 -2.581375 0.590158 7.642116 5.630055 -1.145393 -1.857075 -8.081664 4.918432 19.515394 0.288392 0.190453 -0.216615 5.563772 3.284370 11.775657 -2.698833 2.041747 -7.329927 0.605857 3.706160 -25.464340 0.000000 0.000000 0.000000 98.980164 -1.144241 5.804503 59.954441 -36.226894 5.846191 1.298411 17.450823 31.215578 4.233469 18.011839 -10.515193 10.398108 -1.801108 40.017651 0.000016 0.000050 -25.347542 0.000028 0.000068 -17.601469 0.000008 0.000008 -0.000045 14.376748 0.684407 -9.429759 10.556762 -0.081628 -0.006036 10.541849 -0.017155 -0.046344 -0.000003 0.000013 -0.000022 15.325491 0.250216 -11.379241 11.057817 -0.055276 -0.036125 11.013368 -0.001225 -0.022081 -0.000010 0.000070 -0.000001 18.251736 -0.345926 -12.412942 12.890865 0.087915 0.106928 12.715572 -0.006251 0.083741 -0.000010 -0.000641 0.000022 20.097847 -0.919717 -14.781437 13.412173 0.172829 0.485987 13.391024 -0.060060 0.386531 -0.000200 -0.000013 -0.000021 0.000000 0.000000 0.000000 0.000000 0.000000 0.000000 -95.489731 0.698521 4.419386 -53.476646 34.048004 1.364172 -2.072765 -9.091403 50.817612 -1.869866 -13.045261 -14.683202 -9.738179 1.711763 40.302296 -0.000003 0.000034 -23.793634 -0.000039 -0.000036 -16.633682 0.000247 0.000004 0.001170 -17.349356 0.691859 -14.481563 -11.529341 -0.002956 0.438851 -11.535014 0.055720 0.425544 0.000016 -0.000402 -0.000002 -17.944586 0.296534 -15.555998 -12.117914 -0.025631 0.177578 -11.952986 0.020764 0.141576 -0.002494 -0.000082 -0.000057 -19.478085 -0.294117 -14.471860 -13.380070 0.062609 -0.256206 -13.375927 -0.029466 -0.202988 0.000101 0.000011 -0.000001 -19.504335 -0.835503 -13.962053 -13.695441 0.116090 -0.731024 -13.577088 -0.083685 -0.669115 -0.001166 -0.000006 -0.000041 0.000000 0.000000 0.000000 0.000000 0.000000 0.000000 -17.201397 -3.218123 14.427476 -0.466250 -1.235373 20.960587 8.830183 -12.914064 11.365101 -1.078920 -1.274201 -27.354168 0.000000 0.000000 0.000000 0.000000 0.000000 0.000000 0.000000 0.000000 0.000000 -4.516101 4.311336 13.777725 0.087252 0.415001 12.673347 7.013435 4.425868 13.538775 -0.394076 0.150380 -27.308456 0.000000 0.000000 0.000000 0.000000 0.000000 0.000000 0.000000 0.000000 0.000000 
8.090923 85.696655 10.506559 4.123145 12.900872 -12.580694 -2.581659 0.591569 7.636037 5.634256 -1.148160 -1.847010 -8.080991 4.926870 19.539072 0.289526 0.193054 -0.212249 5.595810 3.281926 11.734327 -2.697832 2.039137 -7.349278 0.610418 3.710194 -25.462799 0.000000 0.000000 0.000000 98.982895 -1.142803 5.829826 59.903965 -36.240215 5.893384 1.295864 17.445932 31.224617 4.271640 18.104450 -10.553518 10.402654 -1.800738 40.016434 0.000016 0.000050 -25.356741 0.000028 0.000068 -17.609241 0.000008 0.000008 -0.000045 14.393614 0.684575 -9.410742 10.564642 -0.080932 -0.006909 10.551348 -0.016453 -0.046795 -0.000004 0.000013 -0.000022 15.328784 0.250518 -11.356692 11.066257 -0.054967 -0.036209 11.021303 -0.001070 -0.021982 -0.000010 0.000070 -0.000001 18.247566 -0.346011 -12.386938 12.891467 0.087636 0.106661 12.716168 -0.006364 0.083282 -0.000010 -0.000618 0.000022 20.087008 -0.919870 -14.757602 13.405334 0.172285 0.482904 13.385586 -0.060505 0.384215 -0.000194 -0.000013 -0.000021 0.000000 0.000000 0.000000 0.000000 0.000000 0.000000 -95.504997 0.700005 4.436718 -53.505547 34.053066 1.281561 -2.067603 -9.073126 50.908562 -1.866569 -13.116926 -14.694860 -9.733396 1.710817 40.305840 -0.000003 0.000034 -23.774080 -0.000039 -0.000036 -16.620981 0.000209 0.000004 0.001198 -17.299637 0.692589 -14.460135 -11.515146 -0.002395 0.440382 -11.521130 0.056330 0.426753 0.000016 -0.000402 -0.000002 -17.901510 0.296688 -15.538564 -12.104790 -0.025271 0.178141 -11.940549 0.020946 0.141953 -0.002484 -0.000082 -0.000056 -19.442297 -0.294076 -14.461707 -13.362481 0.061992 -0.256691 -13.359410 -0.029757 -0.203138 0.000093 0.000011 -0.000001 -19.469484 -0.835405 -13.963329 -13.680467 0.115116 -0.731359 -13.560982 -0.084430 -0.668904 -0.001166 -0.000006 -0.000041 0.000000 0.000000 0.000000 0.000000 0.000000 0.000000 -17.203596 -3.218903 14.393764 -0.466428 -1.235451 20.975405 8.836181 -12.906999 11.357243 -1.079653 -1.273587 -27.348671 0.000000 0.000000 0.000000 0.000000 0.000000 0.000000 0.000000 0.000000 0.000000 -4.512510 4.335121 13.754905 0.087485 0.416509 12.674047 7.005240 4.428838 13.557921 -0.394219 0.150768 -27.321344 0.000000 0.000000 0.000000 0.000000 0.000000 0.000000 0.000000 0.000000 0.000000 
8.075108 85.696899 10.492620 4.125066 12.911304 -12.566684 -2.581343 0.592668 7.629184 5.638988 -1.150720 -1.835752 -8.082526 4.935763 19.563818 0.290469 0.195448 -0.205937 5.630835 3.278898 11.695500 -2.697640 2.035833 -7.367227 0.615256 3.714559 -25.460747 0.000000 0.000000 0.000000 98.986176 -1.142288 5.856245 59.848995 -36.246639 5.946071 1.295587 17.445244 31.228941 4.302648 18.203007 -10.594171 10.407025 -1.800432 40.015175 0.000016 0.000050 -25.365633 0.000028 0.000068 -17.616924 0.000008 0.000008 -0.000045 14.410424 0.684636 -9.394953 10.570295 -0.080182 -0.007742 10.558758 -0.015693 -0.047170 -0.000004 0.000013 -0.000022 15.331458 0.250798 -11.337218 11.072386 -0.054645 -0.036268 11.026911 -0.000904 -0.021835 -0.000010 0.000070 -0.000001 18.241039 -0.346097 -12.363844 12.889666 0.087337 0.106285 12.714416 -0.006487 0.082733 -0.000010 -0.000598 0.000022 20.073927 -0.920010 -14.736541 13.396682 0.171679 0.479611 13.378080 -0.060976 0.381619 -0.000187 -0.000013 -0.000021 0.000000 0.000000 0.000000 0.000000 0.000000 0.000000 -95.521614 0.701663 4.454510 -53.528069 34.058304 1.209750 -2.062890 -9.061725 50.998955 -1.860556 -13.195218 -14.705463 -9.726572 1.709661 40.310379 -0.000003 0.000034 -23.749022 -0.000039 -0.000036 -16.604475 0.000170 0.000005 0.001223 -17.240389 0.693329 -14.438829 -11.497455 -0.001839 0.441769 -11.503673 0.056945 0.427843 0.000016 -0.000405 -0.000002 -17.849504 0.296856 -15.521973 -12.087902 -0.024917 0.178615 -11.924200 0.021125 0.142261 -0.002474 -0.000082 -0.000055 -19.397284 -0.294030 -14.453204 -13.339993 0.061403 -0.257055 -13.338054 -0.030031 -0.203191 0.000087 0.000011 -0.000001 -19.428068 -0.835373 -13.967262 -13.661082 0.114183 -0.731361 -13.540033 -0.085138 -0.668290 -0.001165 -0.000006 -0.000041 0.000000 0.000000 0.000000 0.000000 0.000000 0.000000 -17.207022 -3.223261 14.363208 -0.466551 -1.235380 20.984472 8.841756 -12.897408 11.350463 -1.080205 -1.273028 -27.342035 0.000000 0.000000 0.000000 0.000000 0.000000 0.000000 0.000000 0.000000 0.000000 -4.507573 4.359810 13.730844 0.087799 0.418251 12.677443 6.997680 4.431135 13.575891 -0.394448 0.151087 -27.334833 0.000000 0.000000 0.000000 0.000000 0.000000 0.000000 0.000000 0.000000 0.000000 
